<mxfile host="app.diagrams.net" modified="2023-12-15T13:49:44.475Z" agent="Mozilla/5.0 (Windows NT 10.0; Win64; x64) AppleWebKit/537.36 (KHTML, like Gecko) Chrome/120.0.0.0 Safari/537.36 Edg/120.0.0.0" etag="H4zq5ZdwsFIVBMwty8uZ" version="22.1.9" type="device">
  <diagram name="Страница — 1" id="oFiIXjNsyDwImWtT9eCz">
    <mxGraphModel dx="1412" dy="737" grid="1" gridSize="10" guides="1" tooltips="1" connect="1" arrows="1" fold="1" page="1" pageScale="1" pageWidth="3300" pageHeight="2339" math="0" shadow="0">
      <root>
        <mxCell id="0" />
        <mxCell id="1" parent="0" />
        <mxCell id="FpbdKxaoznBfLcVYZu0W-26" style="edgeStyle=orthogonalEdgeStyle;rounded=0;orthogonalLoop=1;jettySize=auto;html=1;exitX=0;exitY=0;exitDx=55;exitDy=0;exitPerimeter=0;endArrow=none;endFill=0;" edge="1" parent="1" source="FpbdKxaoznBfLcVYZu0W-1" target="FpbdKxaoznBfLcVYZu0W-4">
          <mxGeometry relative="1" as="geometry" />
        </mxCell>
        <mxCell id="FpbdKxaoznBfLcVYZu0W-27" value="LAN" style="edgeLabel;html=1;align=center;verticalAlign=middle;resizable=0;points=[];" vertex="1" connectable="0" parent="FpbdKxaoznBfLcVYZu0W-26">
          <mxGeometry x="0.025" y="2" relative="1" as="geometry">
            <mxPoint as="offset" />
          </mxGeometry>
        </mxCell>
        <mxCell id="FpbdKxaoznBfLcVYZu0W-1" value="&lt;font style=&quot;font-size: 14px;&quot;&gt;&lt;b&gt;WEB-server&lt;/b&gt;&lt;br&gt;{OS = Ubuntu Server}&lt;br&gt;{web server = nginx}&lt;br&gt;&lt;/font&gt;" style="verticalAlign=top;align=center;spacingTop=8;spacingLeft=2;spacingRight=12;shape=cube;size=10;direction=south;fontStyle=0;html=1;whiteSpace=wrap;container=1;" vertex="1" parent="1">
          <mxGeometry x="590" y="340" width="240" height="120" as="geometry" />
        </mxCell>
        <mxCell id="FpbdKxaoznBfLcVYZu0W-31" value="" style="html=1;whiteSpace=wrap;" vertex="1" parent="FpbdKxaoznBfLcVYZu0W-1">
          <mxGeometry y="68.65" width="230" height="50" as="geometry" />
        </mxCell>
        <mxCell id="FpbdKxaoznBfLcVYZu0W-23" style="edgeStyle=orthogonalEdgeStyle;rounded=0;orthogonalLoop=1;jettySize=auto;html=1;exitX=0;exitY=0;exitDx=55;exitDy=0;exitPerimeter=0;endArrow=none;endFill=0;" edge="1" parent="1" source="FpbdKxaoznBfLcVYZu0W-2" target="FpbdKxaoznBfLcVYZu0W-1">
          <mxGeometry relative="1" as="geometry" />
        </mxCell>
        <mxCell id="FpbdKxaoznBfLcVYZu0W-2" value="&lt;font style=&quot;font-size: 14px;&quot;&gt;&lt;b&gt;Workers Browser&lt;/b&gt;&lt;/font&gt;" style="verticalAlign=top;align=center;spacingTop=8;spacingLeft=2;spacingRight=12;shape=cube;size=10;direction=south;fontStyle=0;html=1;whiteSpace=wrap;container=1;" vertex="1" parent="1">
          <mxGeometry x="210" y="240" width="210" height="120" as="geometry" />
        </mxCell>
        <mxCell id="FpbdKxaoznBfLcVYZu0W-33" value="Browser&lt;br&gt;&lt;br&gt;&lt;br&gt;&lt;br&gt;" style="html=1;whiteSpace=wrap;align=left;" vertex="1" parent="FpbdKxaoznBfLcVYZu0W-2">
          <mxGeometry y="38.64999999999998" width="200" height="80" as="geometry" />
        </mxCell>
        <mxCell id="FpbdKxaoznBfLcVYZu0W-24" style="edgeStyle=orthogonalEdgeStyle;rounded=0;orthogonalLoop=1;jettySize=auto;html=1;exitX=0;exitY=0;exitDx=55;exitDy=0;exitPerimeter=0;endArrow=none;endFill=0;" edge="1" parent="1" source="FpbdKxaoznBfLcVYZu0W-3" target="FpbdKxaoznBfLcVYZu0W-1">
          <mxGeometry relative="1" as="geometry" />
        </mxCell>
        <mxCell id="FpbdKxaoznBfLcVYZu0W-25" value="https/Internet" style="edgeLabel;html=1;align=center;verticalAlign=middle;resizable=0;points=[];" vertex="1" connectable="0" parent="FpbdKxaoznBfLcVYZu0W-24">
          <mxGeometry x="0.6436" y="3" relative="1" as="geometry">
            <mxPoint as="offset" />
          </mxGeometry>
        </mxCell>
        <mxCell id="FpbdKxaoznBfLcVYZu0W-3" value="&lt;font style=&quot;font-size: 14px;&quot;&gt;&lt;b&gt;Client Browser&lt;/b&gt;&lt;/font&gt;" style="verticalAlign=top;align=center;spacingTop=8;spacingLeft=2;spacingRight=12;shape=cube;size=10;direction=south;fontStyle=0;html=1;whiteSpace=wrap;container=1;" vertex="1" parent="1">
          <mxGeometry x="210" y="450" width="210" height="120" as="geometry" />
        </mxCell>
        <mxCell id="FpbdKxaoznBfLcVYZu0W-32" value="Browser&lt;br&gt;&lt;br&gt;&lt;br&gt;&lt;br&gt;" style="html=1;whiteSpace=wrap;align=left;" vertex="1" parent="FpbdKxaoznBfLcVYZu0W-3">
          <mxGeometry y="40" width="200" height="80" as="geometry" />
        </mxCell>
        <mxCell id="FpbdKxaoznBfLcVYZu0W-28" style="edgeStyle=orthogonalEdgeStyle;rounded=0;orthogonalLoop=1;jettySize=auto;html=1;exitX=0;exitY=0;exitDx=220;exitDy=0;exitPerimeter=0;endArrow=classic;endFill=1;" edge="1" parent="1" source="FpbdKxaoznBfLcVYZu0W-4" target="FpbdKxaoznBfLcVYZu0W-22">
          <mxGeometry relative="1" as="geometry" />
        </mxCell>
        <mxCell id="FpbdKxaoznBfLcVYZu0W-4" value="&lt;font style=&quot;font-size: 14px;&quot;&gt;&lt;b&gt;Application server&lt;/b&gt;&lt;br&gt;&lt;/font&gt;" style="verticalAlign=top;align=center;spacingTop=8;spacingLeft=2;spacingRight=12;shape=cube;size=10;direction=south;fontStyle=0;html=1;whiteSpace=wrap;container=1;" vertex="1" parent="1">
          <mxGeometry x="910" y="170" width="240" height="450" as="geometry" />
        </mxCell>
        <mxCell id="FpbdKxaoznBfLcVYZu0W-7" value="Authorization" style="html=1;dropTarget=0;whiteSpace=wrap;" vertex="1" parent="FpbdKxaoznBfLcVYZu0W-4">
          <mxGeometry x="45" y="82.76470588235294" width="150" height="44.11764705882353" as="geometry" />
        </mxCell>
        <mxCell id="FpbdKxaoznBfLcVYZu0W-8" value="" style="shape=module;jettyWidth=8;jettyHeight=4;" vertex="1" parent="FpbdKxaoznBfLcVYZu0W-7">
          <mxGeometry x="1" width="20" height="20" relative="1" as="geometry">
            <mxPoint x="-27" y="7" as="offset" />
          </mxGeometry>
        </mxCell>
        <mxCell id="FpbdKxaoznBfLcVYZu0W-9" value="Staff Tasks" style="html=1;dropTarget=0;whiteSpace=wrap;" vertex="1" parent="FpbdKxaoznBfLcVYZu0W-4">
          <mxGeometry x="45" y="135.70588235294116" width="150" height="44.11764705882353" as="geometry" />
        </mxCell>
        <mxCell id="FpbdKxaoznBfLcVYZu0W-10" value="" style="shape=module;jettyWidth=8;jettyHeight=4;" vertex="1" parent="FpbdKxaoznBfLcVYZu0W-9">
          <mxGeometry x="1" width="20" height="20" relative="1" as="geometry">
            <mxPoint x="-27" y="7" as="offset" />
          </mxGeometry>
        </mxCell>
        <mxCell id="FpbdKxaoznBfLcVYZu0W-11" value="Storage" style="html=1;dropTarget=0;whiteSpace=wrap;" vertex="1" parent="FpbdKxaoznBfLcVYZu0W-4">
          <mxGeometry x="45" y="188.64705882352942" width="150" height="44.11764705882353" as="geometry" />
        </mxCell>
        <mxCell id="FpbdKxaoznBfLcVYZu0W-12" value="" style="shape=module;jettyWidth=8;jettyHeight=4;" vertex="1" parent="FpbdKxaoznBfLcVYZu0W-11">
          <mxGeometry x="1" width="20" height="20" relative="1" as="geometry">
            <mxPoint x="-27" y="7" as="offset" />
          </mxGeometry>
        </mxCell>
        <mxCell id="FpbdKxaoznBfLcVYZu0W-13" value="Booking" style="html=1;dropTarget=0;whiteSpace=wrap;" vertex="1" parent="FpbdKxaoznBfLcVYZu0W-4">
          <mxGeometry x="45" y="241.58823529411765" width="150" height="44.11764705882353" as="geometry" />
        </mxCell>
        <mxCell id="FpbdKxaoznBfLcVYZu0W-14" value="" style="shape=module;jettyWidth=8;jettyHeight=4;" vertex="1" parent="FpbdKxaoznBfLcVYZu0W-13">
          <mxGeometry x="1" width="20" height="20" relative="1" as="geometry">
            <mxPoint x="-27" y="7" as="offset" />
          </mxGeometry>
        </mxCell>
        <mxCell id="FpbdKxaoznBfLcVYZu0W-15" value="Feedback" style="html=1;dropTarget=0;whiteSpace=wrap;" vertex="1" parent="FpbdKxaoznBfLcVYZu0W-4">
          <mxGeometry x="45" y="294.52941176470586" width="150" height="44.11764705882353" as="geometry" />
        </mxCell>
        <mxCell id="FpbdKxaoznBfLcVYZu0W-16" value="" style="shape=module;jettyWidth=8;jettyHeight=4;" vertex="1" parent="FpbdKxaoznBfLcVYZu0W-15">
          <mxGeometry x="1" width="20" height="20" relative="1" as="geometry">
            <mxPoint x="-27" y="7" as="offset" />
          </mxGeometry>
        </mxCell>
        <mxCell id="FpbdKxaoznBfLcVYZu0W-17" value="Rooms Service" style="html=1;dropTarget=0;whiteSpace=wrap;" vertex="1" parent="FpbdKxaoznBfLcVYZu0W-4">
          <mxGeometry x="45" y="347.4705882352941" width="150" height="44.11764705882353" as="geometry" />
        </mxCell>
        <mxCell id="FpbdKxaoznBfLcVYZu0W-18" value="" style="shape=module;jettyWidth=8;jettyHeight=4;" vertex="1" parent="FpbdKxaoznBfLcVYZu0W-17">
          <mxGeometry x="1" width="20" height="20" relative="1" as="geometry">
            <mxPoint x="-27" y="7" as="offset" />
          </mxGeometry>
        </mxCell>
        <mxCell id="FpbdKxaoznBfLcVYZu0W-22" value="&lt;font style=&quot;font-size: 14px;&quot;&gt;&lt;b&gt;PostgreSQLDB&lt;/b&gt;&lt;br&gt;&lt;/font&gt;" style="verticalAlign=top;align=center;spacingTop=8;spacingLeft=2;spacingRight=12;shape=cube;size=10;direction=south;fontStyle=0;html=1;whiteSpace=wrap;" vertex="1" parent="1">
          <mxGeometry x="1244" y="330" width="240" height="120" as="geometry" />
        </mxCell>
      </root>
    </mxGraphModel>
  </diagram>
</mxfile>
